<svg width="256" height="256" viewBox="0 0 256 256" fill="none" xmlns="http://www.w3.org/2000/svg">
<path d="M80 128C80 131.165 79.0616 134.258 77.3035 136.889C75.5454 139.52 73.0466 141.571 70.1229 142.782C67.1993 143.993 63.9823 144.31 60.8786 143.693C57.7749 143.075 54.9239 141.551 52.6863 139.314C50.4487 137.076 48.9248 134.225 48.3074 131.121C47.6901 128.018 48.0069 124.801 49.2179 121.877C50.4289 118.953 52.4797 116.455 55.1109 114.696C57.7421 112.938 60.8355 112 64 112C68.242 112.005 72.3088 113.692 75.3084 116.692C78.3079 119.691 79.9952 123.758 80 128ZM192 112C188.836 112 185.742 112.938 183.111 114.696C180.48 116.455 178.429 118.953 177.218 121.877C176.007 124.801 175.69 128.018 176.307 131.121C176.925 134.225 178.449 137.076 180.686 139.314C182.924 141.551 185.775 143.075 188.879 143.693C191.982 144.31 195.199 143.993 198.123 142.782C201.047 141.571 203.545 139.52 205.304 136.889C207.062 134.258 208 131.165 208 128C207.995 123.758 206.308 119.691 203.308 116.692C200.309 113.692 196.242 112.005 192 112ZM128 112C124.836 112 121.742 112.938 119.111 114.696C116.48 116.455 114.429 118.953 113.218 121.877C112.007 124.801 111.69 128.018 112.307 131.121C112.925 134.225 114.449 137.076 116.686 139.314C118.924 141.551 121.775 143.075 124.879 143.693C127.982 144.31 131.199 143.993 134.123 142.782C137.047 141.571 139.545 139.52 141.304 136.889C143.062 134.258 144 131.165 144 128C143.995 123.758 142.308 119.691 139.308 116.692C136.309 113.692 132.242 112.005 128 112Z" fill="#B1B3B5"/>
</svg>
